<svg width="187.29998779296875px" height="70.48001708984376px" xmlns="http://www.w3.org/2000/svg" viewBox="156.35000610351562 39.75999145507812 187.29998779296875 70.48001708984376" style="background: rgba(255, 255, 255, 0) none repeat scroll 0% 0%;" preserveAspectRatio="xMidYMid"><defs><filter id="editing-extrude-glow"><feFlood flood-color="#edecec" result="flood-1"></feFlood><feMorphology operator="erode" radius="1" in="SourceAlpha" result="erode"></feMorphology><feComposite operator="in" in="flood-1" in2="erode" result="comp1"></feComposite><feConvolveMatrix order="0,0" divisor="1" in="comp1" result="convolve" kernelMatrix=""></feConvolveMatrix><feOffset dx="0" dy="0" in="convolve" result="extrude"></feOffset><feComposite operator="in" in="flood-1" in2="extrude" result="comp-extrude"></feComposite><feFlood flood-color="#ffffff" result="flood-2"></feFlood><feComposite operator="in" in="flood-2" in2="SourceAlpha" result="comp2"></feComposite><feMorphology operator="dilate" radius="1" in="comp2" result="dilate"></feMorphology><feOffset dx="0" dy="0" in="dilate" result="offset"></feOffset><feGaussianBlur in="offset" stdDeviation="5.8" result="blur"></feGaussianBlur><feComponentTransfer in="blur" result="shadow"><feFuncA type="linear" slope="0.8" intercept="-0.2"></feFuncA></feComponentTransfer><feMerge><feMergeNode in="shadow"></feMergeNode><feMergeNode in="comp-extrude"></feMergeNode><feMergeNode in="SourceGraphic"></feMergeNode></feMerge></filter></defs><g filter="url(#editing-extrude-glow)"><g transform="translate(188.07999432086945, 87.9600019454956)"><path d="M14.51 0L14.51 0L3.13 0L3.13 0Q2.45 0 2.14-0.31L2.14-0.31L2.14-0.31Q1.84-0.61 1.84-1.30L1.84-1.30L1.84-5.51L1.84-5.51Q1.84-6.19 2.14-6.50L2.14-6.50L2.14-6.50Q2.45-6.80 3.13-6.80L3.13-6.80L12.82-6.80L12.82-6.80Q13.28-6.80 13.52-7.11L13.52-7.11L13.52-7.11Q13.75-7.42 13.75-7.85L13.75-7.85L13.75-7.85Q13.75-8.46 13.52-8.75L13.52-8.75L13.52-8.75Q13.28-9.04 12.82-9.07L12.82-9.07L7.42-9.83L7.42-9.83Q4.90-10.19 3.37-11.48L3.37-11.48L3.37-11.48Q1.84-12.78 1.84-15.80L1.84-15.80L1.84-19.58L1.84-19.58Q1.84-22.64 3.82-24.28L3.82-24.28L3.82-24.28Q5.80-25.92 9.29-25.92L9.29-25.92L19.37-25.92L19.37-25.92Q20.05-25.92 20.36-25.61L20.36-25.61L20.36-25.61Q20.66-25.31 20.66-24.62L20.66-24.62L20.66-20.34L20.66-20.34Q20.66-19.66 20.36-19.35L20.36-19.35L20.36-19.35Q20.05-19.04 19.37-19.04L19.37-19.04L10.98-19.04L10.98-19.04Q10.51-19.04 10.26-18.74L10.26-18.74L10.26-18.74Q10.01-18.43 10.01-17.96L10.01-17.96L10.01-17.96Q10.01-17.50 10.26-17.17L10.26-17.17L10.26-17.17Q10.51-16.85 10.98-16.81L10.98-16.81L16.34-16.09L16.34-16.09Q18.86-15.73 20.41-14.44L20.41-14.44L20.41-14.44Q21.96-13.14 21.96-10.12L21.96-10.12L21.96-6.34L21.96-6.34Q21.96-3.28 19.96-1.64L19.96-1.64L19.96-1.64Q17.96 0 14.51 0ZM38.12 0L38.12 0L32.29 0L32.29 0Q31.61 0 31.30-0.31L31.30-0.31L31.30-0.31Q31.00-0.61 31.00-1.30L31.00-1.30L31.00-18.97L25.70-18.97L25.70-18.97Q25.02-18.97 24.71-19.28L24.71-19.28L24.71-19.28Q24.41-19.58 24.41-20.27L24.41-20.27L24.41-24.62L24.41-24.62Q24.41-25.31 24.71-25.61L24.71-25.61L24.71-25.61Q25.02-25.92 25.70-25.92L25.70-25.92L44.71-25.92L44.71-25.92Q45.40-25.92 45.70-25.61L45.70-25.61L45.70-25.61Q46.01-25.31 46.01-24.62L46.01-24.62L46.01-20.27L46.01-20.27Q46.01-19.58 45.70-19.28L45.70-19.28L45.70-19.28Q45.40-18.97 44.71-18.97L44.71-18.97L39.42-18.97L39.42-1.30L39.42-1.30Q39.42-0.61 39.11-0.31L39.11-0.31L39.11-0.31Q38.81 0 38.12 0ZM58.90-18.36L58.90-18.36L57.20-12.89L62.86-12.89L61.16-18.36L61.16-18.36Q61.02-18.68 60.86-18.83L60.86-18.83L60.86-18.83Q60.70-18.97 60.48-18.97L60.48-18.97L59.58-18.97L59.58-18.97Q59.36-18.97 59.20-18.83L59.20-18.83L59.20-18.83Q59.04-18.68 58.90-18.36ZM56.84-6.34L56.84-1.30L56.84-1.30Q56.84-0.61 56.54-0.31L56.54-0.31L56.54-0.31Q56.23 0 55.55 0L55.55 0L50.26 0L50.26 0Q49.57 0 49.27-0.31L49.27-0.31L49.27-0.31Q48.96-0.61 48.96-1.30L48.96-1.30L48.96-10.80L48.96-10.80Q48.96-11.88 49.30-13.28L49.30-13.28L49.30-13.28Q49.64-14.69 50.36-16.56L50.36-16.56L53.50-24.73L53.50-24.73Q53.71-25.34 54.16-25.63L54.16-25.63L54.16-25.63Q54.61-25.92 55.33-25.92L55.33-25.92L65.02-25.92L65.02-25.92Q65.70-25.92 66.15-25.63L66.15-25.63L66.15-25.63Q66.60-25.34 66.82-24.73L66.82-24.73L69.95-16.56L69.95-16.56Q70.67-14.69 71.01-13.28L71.01-13.28L71.01-13.28Q71.35-11.88 71.35-10.80L71.35-10.80L71.35-1.30L71.35-1.30Q71.35-0.61 71.05-0.31L71.05-0.31L71.05-0.31Q70.74 0 70.06 0L70.06 0L64.62 0L64.62 0Q63.90 0 63.56-0.31L63.56-0.31L63.56-0.31Q63.22-0.61 63.22-1.30L63.22-1.30L63.22-6.34L56.84-6.34ZM86.62-19.44L83.92-19.44L83.92-14.83L86.62-14.83L86.62-14.83Q87.55-14.83 87.88-15.32L87.88-15.32L87.88-15.32Q88.20-15.80 88.20-16.52L88.20-16.52L88.20-17.75L88.20-17.75Q88.20-18.47 87.88-18.95L87.88-18.95L87.88-18.95Q87.55-19.44 86.62-19.44L86.62-19.44ZM82.62 0L82.62 0L77.08 0L77.08 0Q76.39 0 76.09-0.31L76.09-0.31L76.09-0.31Q75.78-0.61 75.78-1.30L75.78-1.30L75.78-24.62L75.78-24.62Q75.78-25.31 76.09-25.61L76.09-25.61L76.09-25.61Q76.39-25.92 77.08-25.92L77.08-25.92L89.06-25.92L89.06-25.92Q93.10-25.92 94.63-24.25L94.63-24.25L94.63-24.25Q96.16-22.57 96.16-19.91L96.16-19.91L96.16-18.25L96.16-18.25Q96.16-16.74 95.71-15.68L95.71-15.68L95.71-15.68Q95.26-14.62 94.14-14.15L94.14-14.15L94.14-14.15Q96.08-13.93 97.29-12.56L97.29-12.56L97.29-12.56Q98.50-11.20 98.50-8.93L98.50-8.93L98.50-1.30L98.50-1.30Q98.50-0.61 98.19-0.31L98.19-0.31L98.19-0.31Q97.88 0 97.20 0L97.20 0L91.62 0L91.62 0Q90.94 0 90.63-0.31L90.63-0.31L90.63-0.31Q90.32-0.61 90.32-1.30L90.32-1.30L90.32-6.80L90.32-6.80Q90.32-7.60 90.02-7.97L90.02-7.97L90.02-7.97Q89.71-8.35 88.96-8.35L88.96-8.35L83.92-8.35L83.92-1.30L83.92-1.30Q83.92-0.61 83.61-0.31L83.61-0.31L83.61-0.31Q83.30 0 82.62 0ZM114.55 0L114.55 0L103.18 0L103.18 0Q102.49 0 102.19-0.31L102.19-0.31L102.19-0.31Q101.88-0.61 101.88-1.30L101.88-1.30L101.88-5.51L101.88-5.51Q101.88-6.19 102.19-6.50L102.19-6.50L102.19-6.50Q102.49-6.80 103.18-6.80L103.18-6.80L112.86-6.80L112.86-6.80Q113.33-6.80 113.56-7.11L113.56-7.11L113.56-7.11Q113.80-7.42 113.80-7.85L113.80-7.85L113.80-7.85Q113.80-8.46 113.56-8.75L113.56-8.75L113.56-8.75Q113.33-9.04 112.86-9.07L112.86-9.07L107.46-9.83L107.46-9.83Q104.94-10.19 103.41-11.48L103.41-11.48L103.41-11.48Q101.88-12.78 101.88-15.80L101.88-15.80L101.88-19.58L101.88-19.58Q101.88-22.64 103.86-24.28L103.86-24.28L103.86-24.28Q105.84-25.92 109.33-25.92L109.33-25.92L119.41-25.92L119.41-25.92Q120.10-25.92 120.40-25.61L120.40-25.61L120.40-25.61Q120.71-25.31 120.71-24.62L120.71-24.62L120.71-20.34L120.71-20.34Q120.71-19.66 120.40-19.35L120.40-19.35L120.40-19.35Q120.10-19.04 119.41-19.04L119.41-19.04L111.02-19.04L111.02-19.04Q110.56-19.04 110.30-18.74L110.30-18.74L110.30-18.74Q110.05-18.43 110.05-17.96L110.05-17.96L110.05-17.96Q110.05-17.50 110.30-17.17L110.30-17.17L110.30-17.17Q110.56-16.85 111.02-16.81L111.02-16.81L116.39-16.09L116.39-16.09Q118.91-15.73 120.46-14.44L120.46-14.44L120.46-14.44Q122.00-13.14 122.00-10.12L122.00-10.12L122.00-6.34L122.00-6.34Q122.00-3.28 120.01-1.64L120.01-1.64L120.01-1.64Q118.01 0 114.55 0Z" fill="#f9f9f9"></path></g></g><style>text {
  font-size: 64px;
  font-family: Arial Black;
  dominant-baseline: central;
  text-anchor: middle;
}</style></svg>