<svg width="274.6400146484375px" height="96.28001708984375px" xmlns="http://www.w3.org/2000/svg" viewBox="112.67999267578125 26.859991455078124 274.6400146484375 96.28001708984375" style="background: rgba(0, 0, 0, 0) none repeat scroll 0% 0%;" preserveAspectRatio="xMidYMid"><defs><filter id="editing-extrude-glow"><feFlood flood-color="#edecec" result="flood-1"></feFlood><feMorphology operator="erode" radius="1" in="SourceAlpha" result="erode"></feMorphology><feComposite operator="in" in="flood-1" in2="erode" result="comp1"></feComposite><feConvolveMatrix order="0,0" divisor="1" in="comp1" result="convolve" kernelMatrix=""></feConvolveMatrix><feOffset dx="0" dy="0" in="convolve" result="extrude"></feOffset><feComposite operator="in" in="flood-1" in2="extrude" result="comp-extrude"></feComposite><feFlood flood-color="#ffffff" result="flood-2"></feFlood><feComposite operator="in" in="flood-2" in2="SourceAlpha" result="comp2"></feComposite><feMorphology operator="dilate" radius="1" in="comp2" result="dilate"></feMorphology><feOffset dx="0" dy="0" in="dilate" result="offset"></feOffset><feGaussianBlur in="offset" stdDeviation="5.8" result="blur"></feGaussianBlur><feComponentTransfer in="blur" result="shadow"><feFuncA type="linear" slope="0.8" intercept="-0.2"></feFuncA></feComponentTransfer><feMerge><feMergeNode in="shadow"></feMergeNode><feMergeNode in="comp-extrude"></feMergeNode><feMergeNode in="SourceGraphic"></feMergeNode></feMerge></filter></defs><g filter="url(#editing-extrude-glow)"><g transform="translate(155.39999914169312, 94.79999923706055)"><path d="M22.16 0L22.16 0L4.79 0L4.79 0Q3.74 0 3.27-0.47L3.27-0.47L3.27-0.47Q2.81-0.94 2.81-1.98L2.81-1.98L2.81-8.42L2.81-8.42Q2.81-9.46 3.27-9.93L3.27-9.93L3.27-9.93Q3.74-10.39 4.79-10.39L4.79-10.39L19.58-10.39L19.58-10.39Q20.30-10.39 20.65-10.86L20.65-10.86L20.65-10.86Q21.01-11.33 21.01-11.99L21.01-11.99L21.01-11.99Q21.01-12.93 20.65-13.37L20.65-13.37L20.65-13.37Q20.30-13.80 19.58-13.86L19.58-13.86L11.33-15.02L11.33-15.02Q7.48-15.56 5.14-17.55L5.14-17.55L5.14-17.55Q2.81-19.52 2.81-24.14L2.81-24.14L2.81-29.92L2.81-29.92Q2.81-34.59 5.83-37.10L5.83-37.10L5.83-37.10Q8.86-39.60 14.19-39.60L14.19-39.60L29.59-39.60L29.59-39.60Q30.64-39.60 31.10-39.13L31.10-39.13L31.10-39.13Q31.57-38.66 31.57-37.62L31.57-37.62L31.57-31.07L31.57-31.07Q31.57-30.03 31.10-29.56L31.10-29.56L31.10-29.56Q30.64-29.09 29.59-29.09L29.59-29.09L16.77-29.09L16.77-29.09Q16.06-29.09 15.68-28.63L15.68-28.63L15.68-28.63Q15.29-28.16 15.29-27.45L15.29-27.45L15.29-27.45Q15.29-26.73 15.68-26.23L15.68-26.23L15.68-26.23Q16.06-25.74 16.77-25.68L16.77-25.68L24.97-24.59L24.97-24.59Q28.82-24.04 31.18-22.05L31.18-22.05L31.18-22.05Q33.55-20.07 33.55-15.46L33.55-15.46L33.55-9.68L33.55-9.68Q33.55-5.00 30.50-2.50L30.50-2.50L30.50-2.50Q27.45 0 22.16 0ZM58.25 0L58.25 0L49.34 0L49.34 0Q48.29 0 47.82-0.47L47.82-0.47L47.82-0.47Q47.36-0.94 47.36-1.98L47.36-1.98L47.36-28.98L39.27-28.98L39.27-28.98Q38.23-28.98 37.76-29.45L37.76-29.45L37.76-29.45Q37.29-29.92 37.29-30.96L37.29-30.96L37.29-37.62L37.29-37.62Q37.29-38.66 37.76-39.13L37.76-39.13L37.76-39.13Q38.23-39.60 39.27-39.60L39.27-39.60L68.31-39.60L68.31-39.60Q69.35-39.60 69.82-39.13L69.82-39.13L69.82-39.13Q70.29-38.66 70.29-37.62L70.29-37.62L70.29-30.96L70.29-30.96Q70.29-29.92 69.82-29.45L69.82-29.45L69.82-29.45Q69.35-28.98 68.31-28.98L68.31-28.98L60.23-28.98L60.23-1.98L60.23-1.98Q60.23-0.94 59.76-0.47L59.76-0.47L59.76-0.47Q59.29 0 58.25 0ZM89.98-28.05L89.98-28.05L87.39-19.69L96.03-19.69L93.44-28.05L93.44-28.05Q93.22-28.55 92.98-28.77L92.98-28.77L92.98-28.77Q92.73-28.98 92.40-28.98L92.40-28.98L91.03-28.98L91.03-28.98Q90.69-28.98 90.45-28.77L90.45-28.77L90.45-28.77Q90.20-28.55 89.98-28.05ZM86.84-9.68L86.84-1.98L86.84-1.98Q86.84-0.94 86.38-0.47L86.38-0.47L86.38-0.47Q85.91 0 84.86 0L84.86 0L76.78 0L76.78 0Q75.73 0 75.27-0.47L75.27-0.47L75.27-0.47Q74.80-0.94 74.80-1.98L74.80-1.98L74.80-16.50L74.80-16.50Q74.80-18.15 75.32-20.30L75.32-20.30L75.32-20.30Q75.84-22.44 76.94-25.30L76.94-25.30L81.73-37.79L81.73-37.79Q82.06-38.72 82.75-39.16L82.75-39.16L82.75-39.16Q83.44-39.60 84.53-39.60L84.53-39.60L99.33-39.60L99.33-39.60Q100.38-39.60 101.06-39.16L101.06-39.16L101.06-39.16Q101.75-38.72 102.08-37.79L102.08-37.79L106.87-25.30L106.87-25.30Q107.97-22.44 108.49-20.30L108.49-20.30L108.49-20.30Q109.01-18.15 109.01-16.50L109.01-16.50L109.01-1.98L109.01-1.98Q109.01-0.94 108.54-0.47L108.54-0.47L108.54-0.47Q108.07 0 107.03 0L107.03 0L98.72 0L98.72 0Q97.63 0 97.10-0.47L97.10-0.47L97.10-0.47Q96.58-0.94 96.58-1.98L96.58-1.98L96.58-9.68L86.84-9.68ZM132.33-29.70L128.20-29.70L128.20-22.66L132.33-22.66L132.33-22.66Q133.76-22.66 134.25-23.40L134.25-23.40L134.25-23.40Q134.75-24.14 134.75-25.25L134.75-25.25L134.75-27.11L134.75-27.11Q134.75-28.21 134.25-28.96L134.25-28.96L134.25-28.96Q133.76-29.70 132.33-29.70L132.33-29.70ZM126.22 0L126.22 0L117.75 0L117.75 0Q116.71 0 116.24-0.47L116.24-0.47L116.24-0.47Q115.77-0.94 115.77-1.98L115.77-1.98L115.77-37.62L115.77-37.62Q115.77-38.66 116.24-39.13L116.24-39.13L116.24-39.13Q116.71-39.60 117.75-39.60L117.75-39.60L136.07-39.60L136.07-39.60Q142.23-39.60 144.57-37.04L144.57-37.04L144.57-37.04Q146.90-34.48 146.90-30.41L146.90-30.41L146.90-27.89L146.90-27.89Q146.90-25.57 146.22-23.95L146.22-23.95L146.22-23.95Q145.53-22.33 143.82-21.61L143.82-21.61L143.82-21.61Q146.79-21.29 148.64-19.20L148.64-19.20L148.64-19.20Q150.48-17.11 150.48-13.64L150.48-13.64L150.48-1.98L150.48-1.98Q150.48-0.94 150.01-0.47L150.01-0.47L150.01-0.47Q149.54 0 148.50 0L148.50 0L139.97 0L139.97 0Q138.93 0 138.46-0.47L138.46-0.47L138.46-0.47Q138.00-0.94 138.00-1.98L138.00-1.98L138.00-10.39L138.00-10.39Q138.00-11.61 137.53-12.18L137.53-12.18L137.53-12.18Q137.06-12.76 135.91-12.76L135.91-12.76L128.20-12.76L128.20-1.98L128.20-1.98Q128.20-0.94 127.74-0.47L127.74-0.47L127.74-0.47Q127.27 0 126.22 0ZM175.01 0L175.01 0L157.63 0L157.63 0Q156.59 0 156.12-0.47L156.12-0.47L156.12-0.47Q155.65-0.94 155.65-1.98L155.65-1.98L155.65-8.42L155.65-8.42Q155.65-9.46 156.12-9.93L156.12-9.93L156.12-9.93Q156.59-10.39 157.63-10.39L157.63-10.39L172.43-10.39L172.43-10.39Q173.14-10.39 173.50-10.86L173.50-10.86L173.50-10.86Q173.85-11.33 173.85-11.99L173.85-11.99L173.85-11.99Q173.85-12.93 173.50-13.37L173.50-13.37L173.50-13.37Q173.14-13.80 172.43-13.86L172.43-13.86L164.18-15.02L164.18-15.02Q160.32-15.56 157.99-17.55L157.99-17.55L157.99-17.55Q155.65-19.52 155.65-24.14L155.65-24.14L155.65-29.92L155.65-29.92Q155.65-34.59 158.68-37.10L158.68-37.10L158.68-37.10Q161.70-39.60 167.03-39.60L167.03-39.60L182.44-39.60L182.44-39.60Q183.48-39.60 183.95-39.13L183.95-39.13L183.95-39.13Q184.41-38.66 184.41-37.62L184.41-37.62L184.41-31.07L184.41-31.07Q184.41-30.03 183.95-29.56L183.95-29.56L183.95-29.56Q183.48-29.09 182.44-29.09L182.44-29.09L169.62-29.09L169.62-29.09Q168.91-29.09 168.52-28.63L168.52-28.63L168.52-28.63Q168.13-28.16 168.13-27.45L168.13-27.45L168.13-27.45Q168.13-26.73 168.52-26.23L168.52-26.23L168.52-26.23Q168.91-25.74 169.62-25.68L169.62-25.68L177.81-24.59L177.81-24.59Q181.66-24.04 184.03-22.05L184.03-22.05L184.03-22.05Q186.39-20.07 186.39-15.46L186.39-15.46L186.39-9.68L186.39-9.68Q186.39-5.00 183.34-2.50L183.34-2.50L183.34-2.50Q180.29 0 175.01 0Z" fill="#e33535"></path></g></g><style>text {
  font-size: 64px;
  font-family: Arial Black;
  dominant-baseline: central;
  text-anchor: middle;
}</style></svg>